<svg xmlns="http://www.w3.org/2000/svg" viewBox="88 180 985 732" role="img" aria-labelledby="title desc"><title id="title">創山 循環ロゴ・稲穂終端調整案</title><desc id="desc">筆文字の創山と大地、円弧から左側の稲穂へ変わる循環。</desc><path fill="#ed7210" fill-rule="evenodd" d="M253 887 L253 888 L287 888 L288 887 L302 887 L303 888 L322 888 L323 887 L325 888 L346 888 L347 887 L352 888 L412 888 L413 887 L416 888 L520 888 L521 887 L529 887 L530 888 L724 888 L725 887 L741 887 L742 888 L747 887 L755 887 L756 888 L779 888 L780 887 L788 887 L789 888 L798 888 L799 887 L801 888 L802 887 L803 888 L811 888 L812 887 L817 888 L831 888 L832 887 L833 888 L941 888 L922 877 L883 861 L850 851 L812 842 L774 836 L773 835 L744 832 L743 831 L735 831 L734 830 L726 830 L725 829 L716 829 L715 828 L678 826 L677 825 L622 824 L621 823 L579 823 L578 824 L543 824 L542 825 L507 826 L506 827 L494 827 L493 828 L455 831 L454 832 L439 833 L438 834 L400 839 L370 845 L361 848 L357 848 L327 856 L283 872Z M180 763 L179 782 L175 783 L174 785 L174 799 L175 800 L177 816 L186 838 L197 853 L215 867 L228 872 L233 872 L234 873 L243 871 L244 869 L244 857 L239 840 L233 828 L227 819 L215 806 L191 789 L183 773Z M195 712 L192 717 L191 728 L190 729 L191 751 L195 767 L203 782 L213 793 L223 800 L229 803 L237 805 L239 803 L241 797 L242 776 L241 775 L240 764 L235 750 L228 738 L216 724 L205 716Z M170 675 L171 695 L176 720 L178 725 L178 730 L180 715 L185 702 L178 694 L172 682Z M120 659 L116 667 L112 688 L112 705 L113 706 L113 713 L115 722 L124 742 L129 749 L144 763 L155 769 L158 769 L163 757 L165 748 L165 741 L166 740 L166 720 L162 702 L155 687 L150 680 L139 669 L124 659Z M218 580 L215 580 L212 582 L194 603 L184 621 L179 637 L178 659 L180 668 L185 680 L193 690 L198 689 L207 680 L214 670 L220 659 L226 640 L227 627 L228 626 L227 605 L223 590Z M157 538 L154 538 L152 540 L140 562 L134 579 L132 589 L132 611 L135 622 L145 639 L150 644 L154 646 L161 640 L168 630 L174 618 L179 598 L179 579 L175 564 L166 548Z M502 511 L500 513 L500 518 L502 521 L505 533 L506 562 L507 563 L507 640 L506 641 L506 670 L505 671 L504 705 L506 709 L511 713 L525 714 L537 710 L542 706 L545 700 L544 551 L545 550 L545 545 L551 537 L552 532 L548 527 L534 520 L508 511Z M653 579 L653 584 L657 591 L659 598 L660 620 L661 621 L661 739 L660 740 L659 785 L664 794 L671 797 L684 797 L692 795 L701 790 L705 783 L705 764 L704 763 L706 761 L721 758 L727 758 L728 757 L743 756 L744 755 L776 753 L777 752 L792 752 L793 751 L839 750 L840 751 L864 751 L865 752 L881 753 L883 755 L881 763 L880 780 L882 787 L887 792 L893 794 L914 793 L924 789 L929 784 L931 778 L930 709 L929 708 L929 621 L932 612 L938 605 L938 601 L935 597 L922 590 L885 577 L878 577 L875 580 L875 583 L881 595 L882 607 L883 608 L884 733 L883 734 L867 734 L866 733 L820 733 L815 734 L813 732 L813 564 L814 563 L814 540 L816 531 L822 524 L824 519 L821 514 L810 508 L778 497 L775 497 L771 495 L765 495 L762 498 L762 501 L765 506 L768 516 L769 535 L770 536 L770 734 L764 736 L750 736 L749 737 L738 737 L737 738 L727 738 L711 741 L704 741 L702 736 L702 622 L703 621 L703 616 L706 609 L712 603 L712 598 L705 592 L690 585 L678 581 L675 581 L664 577 L655 577Z M561 469 L558 474 L563 487 L564 499 L565 500 L566 553 L567 554 L567 734 L565 742 L562 747 L557 752 L551 755 L531 756 L515 753 L513 754 L513 757 L521 763 L536 778 L544 790 L547 797 L552 802 L558 804 L565 804 L581 800 L596 791 L605 780 L610 767 L610 733 L609 732 L609 713 L608 712 L607 647 L606 646 L606 533 L607 532 L608 509 L610 504 L616 497 L616 491 L612 487 L601 481 L573 471 L570 471 L566 469Z M237 465 L229 468 L209 482 L200 491 L192 502 L186 515 L182 531 L182 543 L185 552 L194 551 L210 542 L222 530 L228 521 L234 508 L238 493 L239 472Z M391 445 L381 444 L378 459 L368 480 L352 507 L324 547 L296 580 L261 614 L262 617 L288 604 L309 591 L319 583 L321 584 L322 595 L323 596 L323 614 L324 615 L323 645 L322 646 L321 664 L314 699 L304 729 L290 759 L274 785 L258 806 L259 807 L261 807 L277 798 L293 786 L313 766 L324 752 L338 730 L339 731 L339 763 L338 764 L338 782 L337 783 L337 806 L343 812 L346 813 L359 813 L371 808 L375 804 L376 801 L376 784 L387 781 L417 779 L418 778 L431 779 L432 780 L431 785 L432 798 L436 802 L441 804 L454 804 L461 802 L467 799 L472 793 L472 730 L474 722 L484 712 L484 707 L479 702 L449 683 L443 684 L431 697 L419 697 L418 698 L408 698 L407 699 L371 702 L353 696 L358 676 L363 674 L382 672 L383 671 L391 671 L392 670 L403 670 L404 669 L429 669 L433 676 L443 679 L453 678 L464 674 L469 669 L470 666 L470 614 L471 613 L471 607 L474 601 L483 593 L483 588 L478 583 L448 564 L442 564 L429 579 L424 580 L400 581 L399 582 L390 582 L389 583 L381 583 L380 584 L361 586 L347 581 L332 578 L329 576 L348 560 L352 566 L356 568 L364 565 L385 562 L386 561 L393 561 L394 560 L413 559 L414 558 L444 558 L449 557 L452 554 L452 550 L450 547 L425 529 L420 529 L406 545 L395 546 L394 547 L385 547 L384 548 L375 548 L374 549 L365 549 L364 550 L361 549 L388 520 L409 494 L425 506 L445 526 L459 544 L464 548 L472 551 L478 550 L487 541 L488 538 L488 525 L483 514 L471 503 L457 496 L433 489 L417 487 L415 485 L420 478 L428 473 L429 467 L421 460Z M432 712 L433 713 L433 762 L432 763 L404 764 L403 765 L394 765 L393 766 L386 766 L377 768 L375 766 L375 718 L376 717 L385 715 L400 714 L401 713Z M430 632 L430 652 L429 653 L389 656 L388 657 L380 657 L366 660 L361 659 L362 639 L364 637 L381 635 L382 634 L399 633 L400 632 L411 632 L412 631 L429 631Z M430 595 L431 601 L430 602 L430 616 L429 617 L393 619 L392 620 L384 620 L368 623 L363 622 L363 601 L364 600 L380 598 L381 597 L397 596 L398 595 L410 595 L411 594 L429 594Z M241 414 L230 433 L210 476 L235 433 L257 402 L283 372 L300 355 L325 333 L347 316 L371 300 L399 284 L443 264 L482 251 L516 243 L540 240 L541 239 L548 239 L549 238 L557 238 L558 237 L622 236 L623 237 L634 237 L635 238 L657 240 L700 249 L728 258 L761 272 L801 294 L839 321 L863 342 L893 373 L927 417 L950 454 L971 497 L987 541 L998 584 L1000 599 L1002 605 L1004 625 L1005 626 L1005 635 L1006 636 L1006 645 L1007 646 L1007 665 L1008 666 L1007 704 L1006 705 L1005 721 L1004 722 L1004 728 L1000 749 L987 795 L975 825 L963 848 L953 863 L970 847 L989 823 L1004 799 L1014 780 L1026 752 L1037 716 L1045 677 L1047 654 L1048 653 L1048 641 L1049 640 L1049 592 L1048 591 L1048 581 L1047 580 L1045 557 L1037 519 L1026 484 L1013 453 L1001 429 L987 405 L969 378 L940 342 L905 307 L881 287 L848 264 L807 242 L770 227 L724 214 L704 210 L685 208 L684 207 L653 205 L652 204 L599 204 L598 205 L585 205 L584 206 L567 207 L566 208 L560 208 L559 209 L531 213 L492 223 L446 240 L409 258 L376 278 L352 295 L319 322 L291 349 L267 377Z"/></svg>